<?xml version="1.0" standalone="no"?>
<!DOCTYPE svg PUBLIC "-//W3C//DTD SVG 20010904//EN"
 "http://www.w3.org/TR/2001/REC-SVG-20010904/DTD/svg10.dtd">
<svg version="1.0" xmlns="http://www.w3.org/2000/svg"
 width="700.000000pt" height="700.000000pt" viewBox="0 0 700.000000 700.000000"
 preserveAspectRatio="xMidYMid meet">
<metadata>
Created by potrace 1.14, written by Peter Selinger 2001-2017
</metadata>
<g transform="translate(0.000000,700.000000) scale(0.100000,-0.100000)"
fill="#000000" stroke="none">
<path d="M3278 6996 c-1 -2 -39 -6 -83 -10 -44 -3 -98 -9 -120 -12 -22 -3 -53
-7 -70 -9 -75 -9 -128 -18 -235 -41 -585 -124 -1137 -402 -1585 -798 -99 -88
-254 -243 -319 -319 -22 -27 -51 -61 -64 -76 -43 -48 -161 -208 -220 -298
-241 -363 -424 -797 -507 -1208 -8 -38 -16 -79 -18 -90 -3 -11 -8 -40 -12 -65
-3 -25 -9 -58 -11 -74 -3 -16 -7 -50 -9 -75 -3 -25 -8 -82 -12 -126 -15 -155
-8 -588 12 -706 2 -13 6 -46 9 -74 6 -54 11 -81 27 -161 5 -28 12 -61 14 -75
30 -155 109 -417 183 -599 148 -368 414 -783 676 -1059 132 -137 350 -340 367
-341 4 0 7 248 7 552 l0 551 -78 118 c-132 199 -234 407 -311 636 -73 216
-112 411 -134 663 -5 62 -6 357 -1 400 3 19 7 64 11 100 3 36 7 76 10 90 21
127 29 169 51 260 51 212 139 441 251 650 54 99 190 311 230 355 10 12 34 41
53 65 85 111 262 287 395 394 78 63 271 198 331 233 261 147 524 251 776 307
111 24 134 28 233 42 28 3 59 8 70 11 36 9 499 12 560 3 33 -5 85 -11 115 -15
181 -22 503 -107 625 -166 l29 -14 0 -1260 c0 -693 -4 -1294 -7 -1336 -33
-375 -316 -731 -678 -854 -163 -56 -400 -74 -519 -40 -8 2 -30 7 -49 10 -86
15 -245 83 -335 144 -22 15 -47 31 -53 35 -10 6 -13 -86 -13 -443 l0 -450 83
-25 c69 -21 175 -48 237 -61 65 -13 169 -20 305 -20 144 0 309 10 324 20 4 2
27 6 51 10 25 3 86 17 135 30 623 168 1089 665 1254 1338 17 67 33 142 36 167
3 25 8 52 10 60 2 8 7 53 11 100 8 99 12 3027 4 3040 -9 15 -178 109 -315 175
-235 114 -489 203 -740 259 -134 30 -183 38 -435 72 -47 6 -546 15 -552 10z"/>
<path d="M5692 5675 l-1 -556 83 -127 c177 -270 289 -525 366 -832 16 -63 32
-131 35 -150 6 -39 16 -95 21 -125 2 -11 6 -56 10 -100 3 -44 7 -91 10 -105 5
-33 5 -299 -1 -375 -11 -144 -41 -344 -67 -440 -6 -22 -11 -44 -12 -50 -5 -21
-27 -96 -45 -152 -192 -591 -575 -1094 -1096 -1438 -92 -61 -159 -100 -304
-175 -14 -8 -59 -27 -146 -65 -186 -80 -483 -160 -673 -181 -29 -3 -63 -8 -75
-11 -12 -3 -125 -6 -252 -8 -287 -4 -475 17 -725 80 -80 21 -262 81 -306 102
l-38 18 0 1260 c0 693 3 1295 7 1337 41 443 405 827 852 898 72 12 251 15 295
6 13 -3 42 -8 65 -11 103 -15 302 -101 386 -167 20 -15 40 -28 43 -28 3 0 6
202 6 449 l0 449 -77 25 c-78 25 -147 43 -193 51 -14 3 -38 7 -55 10 -16 3
-46 9 -65 12 -57 10 -390 13 -460 3 -36 -5 -83 -11 -105 -14 -183 -24 -445
-121 -630 -233 -152 -92 -350 -269 -447 -399 -23 -32 -45 -60 -48 -63 -13 -12
-81 -121 -125 -200 -84 -152 -169 -383 -201 -545 -2 -11 -6 -31 -9 -45 -9 -44
-23 -143 -31 -215 -4 -38 -8 -740 -9 -1558 l-1 -1489 81 -47 c229 -135 519
-258 804 -341 130 -38 347 -82 466 -95 28 -3 55 -8 62 -10 78 -26 643 -26 838
0 134 18 232 34 285 46 25 6 56 13 70 15 59 11 225 58 348 100 771 260 1442
798 1863 1495 108 179 226 420 285 584 61 167 128 399 150 515 2 14 7 36 10
50 3 14 8 39 10 55 2 17 6 39 8 50 2 11 7 45 11 75 4 30 9 66 11 80 19 112 26
547 11 715 -83 926 -517 1762 -1234 2373 l-61 52 0 -555z"/>
</g>
</svg>
